<?xml version="1.0" encoding="UTF-8" standalone="no"?>
<svg
   xmlns:dc="http://purl.org/dc/elements/1.1/"
   xmlns:cc="http://creativecommons.org/ns#"
   xmlns:rdf="http://www.w3.org/1999/02/22-rdf-syntax-ns#"
   xmlns:svg="http://www.w3.org/2000/svg"
   xmlns="http://www.w3.org/2000/svg"
   id="svg455"
   version="1.1"
   viewBox="0 0 121.70834 121.70834"
   height="121.70834mm"
   width="121.70834mm">
  <defs
     id="defs449" />
  <metadata
     id="metadata452">
    <rdf:RDF>
      <cc:Work
         rdf:about="">
        <dc:format>image/svg+xml</dc:format>
        <dc:type
           rdf:resource="http://purl.org/dc/dcmitype/StillImage" />
        <dc:title></dc:title>
      </cc:Work>
    </rdf:RDF>
  </metadata>
  <g
     transform="translate(330.73817,-101.28354)"
     id="layer1">
    <g
       transform="translate(70.559155,-45.16855)"
       id="g2045">
      <path
         id="path2077"
         d="m -401.29733,207.30626 v -60.85417 h 60.85417 60.85417 v 60.85417 60.85417 h -60.85417 -60.85417 z"
         style="fill:#fe0000;stroke-width:0.26458335" />
      <path
         id="path2075"
         d="m -344.01504,253.39579 -1.32291,-1.00402 -9.92188,-9.92661 -9.92187,-9.9266 -0.67679,-0.90834 -0.67678,-0.90833 -0.4477,-0.96603 -0.44769,-0.96603 v -21.47451 -21.47451 l 0.56175,-1.30582 0.56175,-1.30581 h 0.232 0.232 v -0.33502 -0.33502 l 10.47346,-10.44675 10.47346,-10.44676 0.31316,-0.26458 0.31315,-0.26458 0.82973,-0.46303 0.82973,-0.46302 h 2.16731 2.16731 l 0.80583,0.46302 0.80582,0.46303 10.81052,10.79001 10.81052,10.79002 v 0.25634 0.25634 h 0.215 0.21501 l 0.58469,1.33905 0.58469,1.33905 -0.0721,21.74584 -0.0721,21.74585 -0.51138,0.92604 -0.51138,0.92604 -10.99799,10.995 -10.998,10.99499 -1.00731,0.58053 -1.00731,0.58053 -2.0354,-10e-4 -2.0354,-0.001 -1.32292,-1.00403 z"
         style="fill:#00fe00;stroke-width:0.26458335" />
      <path
         id="path2073"
         d="m -344.01504,253.39579 -1.32291,-1.00402 -9.92188,-9.92661 -9.92187,-9.9266 -0.67679,-0.90834 -0.67678,-0.90833 -0.4477,-0.96603 -0.44769,-0.96603 v -21.47451 -21.47451 l 0.56175,-1.30582 0.56175,-1.30581 h 0.232 0.232 v -0.33502 -0.33502 l 10.47346,-10.44675 10.47346,-10.44676 0.31316,-0.26458 0.31315,-0.26458 0.82973,-0.46303 0.82973,-0.46302 h 2.16731 2.16731 l 0.80583,0.46302 0.80582,0.46303 10.81052,10.79001 10.81052,10.79002 v 0.25634 0.25634 h 0.215 0.21501 l 0.58469,1.33905 0.58469,1.33905 -0.0721,21.74584 -0.0721,21.74585 -0.51138,0.92604 -0.51138,0.92604 -10.99799,10.995 -10.998,10.99499 -1.00731,0.58053 -1.00731,0.58053 -2.0354,-10e-4 -2.0354,-0.001 -1.32292,-1.00403 z m 2.51355,-31.10142 v -4.32648 l -9.02622,-9.03498 -9.02621,-9.03498 h -0.10191 -0.10191 v 13.36146 13.36145 h 9.12812 9.12813 z"
         style="fill:#0000fe;stroke-width:0.26458335" />
      <path
         id="path2071"
         d="m -344.01504,253.39579 -1.32291,-1.00402 -9.92188,-9.92661 -9.92187,-9.9266 -0.67679,-0.90834 -0.67678,-0.90833 -0.4477,-0.96603 -0.44769,-0.96603 v -21.47451 -21.47451 l 0.56175,-1.30582 0.56175,-1.30581 h 0.232 0.232 v -0.33502 -0.33502 l 10.47346,-10.44675 10.47346,-10.44676 0.31316,-0.26458 0.31315,-0.26458 0.82973,-0.46303 0.82973,-0.46302 h 2.16731 2.16731 l 0.80583,0.46302 0.80582,0.46303 10.81052,10.79001 10.81052,10.79002 v 0.25634 0.25634 h 0.215 0.21501 l 0.58469,1.33905 0.58469,1.33905 -0.0721,21.74584 -0.0721,21.74585 -0.51138,0.92604 -0.51138,0.92604 -10.99799,10.995 -10.998,10.99499 -1.00731,0.58053 -1.00731,0.58053 -2.0354,-10e-4 -2.0354,-0.001 -1.32292,-1.00403 z m 15.55598,-12.68588 10.55697,-10.51719 0.63572,-0.98693 0.63571,-0.98693 v -20.8514 -20.8514 l -0.50011,-0.98093 -0.50011,-0.98094 -10.59108,-10.58438 -10.59108,-10.58439 h -1.58991 -1.58991 l -0.39688,0.39688 -0.39687,0.39687 h -0.13284 -0.13285 l -9.96882,9.97244 -9.96882,9.97244 -0.63286,1.00252 -0.63286,1.00251 v 21.02451 21.02451 l 0.58447,1.00731 0.58446,1.00731 10.03428,10.05417 10.03427,10.05416 0.6922,0.46128 0.69219,0.46128 1.30888,0.002 1.30888,0.002 10.55697,-10.51719 z m -22.93416,-2.15684 -10.3489,-10.33902 v -20.90779 -20.90779 l 10.3489,-10.33902 10.3489,-10.33901 0.56454,0.0893 0.56453,0.0893 10.31938,10.31079 10.31938,10.3108 v 20.7857 20.7857 l -10.31938,10.3108 -10.31938,10.31079 -0.56453,0.0893 -0.56454,0.0893 z m 9.89173,-16.2587 v -4.32648 l -9.02622,-9.03498 -9.02621,-9.03498 h -0.10191 -0.10191 v 13.36146 13.36145 h 9.12812 9.12813 z"
         style="fill:#be0000;stroke-width:0.26458335" />
      <path
         id="path2069"
         d="m -343.44899,253.78106 -1.02145,-0.61832 -8.46542,-8.4423 -8.46542,-8.4423 -2.4421,-2.53149 -2.4421,-2.53148 -0.50644,-0.9081 -0.50645,-0.9081 -0.0721,-21.77648 -0.0721,-21.77647 0.51626,-1.16709 0.51626,-1.16709 0.34961,-0.45498 0.3496,-0.45498 10.05417,-10.15412 10.05416,-10.15412 1.31557,-0.97546 1.31557,-0.97546 2.25631,-0.0805 2.25631,-0.0805 0.86385,0.47741 0.86386,0.47741 10.77781,10.78993 10.77781,10.78993 0.29473,0.33901 0.29473,0.33901 0.49902,1.04189 0.49902,1.04189 v 21.82813 21.82813 l -0.50611,1.05833 -0.50611,1.05833 -11.00327,10.995 -11.00326,10.99499 -1.00731,0.58053 -1.00731,0.58053 -1.90311,-0.001 -1.90311,-0.001 -1.02145,-0.61832 z m 14.98993,-13.07115 10.55697,-10.51719 0.63572,-0.98693 0.63571,-0.98693 v -20.8514 -20.8514 l -0.50011,-0.98093 -0.50011,-0.98094 -10.59108,-10.58438 -10.59108,-10.58439 h -1.58991 -1.58991 l -0.39688,0.39688 -0.39687,0.39687 h -0.13284 -0.13285 l -9.96882,9.97244 -9.96882,9.97244 -0.63286,1.00252 -0.63286,1.00251 v 21.02451 21.02451 l 0.58447,1.00731 0.58446,1.00731 10.03428,10.05417 10.03427,10.05416 0.6922,0.46128 0.69219,0.46128 1.30888,0.002 1.30888,0.002 10.55697,-10.51719 z m -22.93416,-2.15684 -10.3489,-10.33902 v -20.90779 -20.90779 l 10.3489,-10.33902 10.3489,-10.33901 0.56454,0.0893 0.56453,0.0893 10.31938,10.31079 10.31938,10.3108 v 20.7857 20.7857 l -10.31938,10.3108 -10.31938,10.31079 -0.56453,0.0893 -0.56454,0.0893 z m 9.89173,-16.2587 v -4.32648 l -9.02622,-9.03498 -9.02621,-9.03498 h -0.10191 -0.10191 v 13.36146 13.36145 h 9.12812 9.12813 z"
         style="fill:#0000be;stroke-width:0.26458335" />
      <path
         id="path2067"
         d="m -343.44899,253.78106 -1.02145,-0.61832 -8.46542,-8.4423 -8.46542,-8.4423 -2.4421,-2.53149 -2.4421,-2.53148 -0.50644,-0.9081 -0.50645,-0.9081 -0.0721,-21.77648 -0.0721,-21.77647 0.51626,-1.16709 0.51626,-1.16709 0.34961,-0.45498 0.3496,-0.45498 10.05417,-10.15412 10.05416,-10.15412 1.31557,-0.97546 1.31557,-0.97546 2.25631,-0.0805 2.25631,-0.0805 0.86385,0.47741 0.86386,0.47741 10.77781,10.78993 10.77781,10.78993 0.29473,0.33901 0.29473,0.33901 0.49902,1.04189 0.49902,1.04189 v 21.82813 21.82813 l -0.50611,1.05833 -0.50611,1.05833 -11.00327,10.995 -11.00326,10.99499 -1.00731,0.58053 -1.00731,0.58053 -1.90311,-0.001 -1.90311,-0.001 -1.02145,-0.61832 z m 14.98993,-13.07115 10.55697,-10.51719 0.63572,-0.98693 0.63571,-0.98693 v -20.82381 -20.8238 l -0.52226,-1.07573 -0.52226,-1.07572 -10.53178,-10.51719 -10.53179,-10.51719 h -1.58708 -1.58709 l -0.60115,0.42107 -0.60115,0.42106 -9.92583,9.92999 -9.92583,9.92998 -0.64439,1.02078 -0.64439,1.02078 v 21.02451 21.02451 l 0.56862,1.00731 0.56862,1.00731 9.68398,9.75027 9.68399,9.75027 1.03188,0.76691 1.03189,0.76693 h 1.33532 1.33533 z m -22.9573,-2.17996 -10.32576,-10.3159 V 207.3104 186.40675 l 10.18646,-10.19574 10.18646,-10.19575 0.62426,-0.16024 0.62426,-0.16024 10.42209,10.41959 10.4221,10.41959 v 20.7723 20.7723 l -10.38614,10.38365 -10.38614,10.38364 h -0.52092 -0.52092 z m 9.91487,-16.23558 v -4.32648 l -9.02622,-9.03498 -9.02621,-9.03498 h -0.10191 -0.10191 v 13.36146 13.36145 h 9.12812 9.12813 z"
         style="fill:#007f00;stroke-width:0.26458335" />
      <path
         id="path2065"
         d="m -343.44899,253.78106 -1.02145,-0.61832 -8.46542,-8.4423 -8.46542,-8.4423 -2.4421,-2.53149 -2.4421,-2.53148 -0.50644,-0.9081 -0.50645,-0.9081 -0.0721,-21.77648 -0.0721,-21.77647 0.51626,-1.16709 0.51626,-1.16709 0.34961,-0.45498 0.3496,-0.45498 10.05417,-10.15412 10.05416,-10.15412 1.31557,-0.97546 1.31557,-0.97546 2.25631,-0.0805 2.25631,-0.0805 0.86385,0.47741 0.86386,0.47741 10.77781,10.78993 10.77781,10.78993 0.29473,0.33901 0.29473,0.33901 0.49902,1.04189 0.49902,1.04189 v 21.82813 21.82813 l -0.50611,1.05833 -0.50611,1.05833 -11.00327,10.995 -11.00326,10.99499 -1.00731,0.58053 -1.00731,0.58053 -1.90311,-0.001 -1.90311,-0.001 -1.02145,-0.61832 z m 14.98993,-13.07115 10.55697,-10.51719 0.63572,-0.98693 0.63571,-0.98693 v -20.82381 -20.8238 l -0.52226,-1.07573 -0.52226,-1.07572 -10.53178,-10.51719 -10.53179,-10.51719 h -1.58708 -1.58709 l -0.60115,0.42107 -0.60115,0.42106 -9.92583,9.92999 -9.92583,9.92998 -0.64439,1.02078 -0.64439,1.02078 v 21.02451 21.02451 l 0.56862,1.00731 0.56862,1.00731 9.68398,9.75027 9.68399,9.75027 1.03188,0.76691 1.03189,0.76693 h 1.33532 1.33533 z m -22.9573,-2.17996 -10.32576,-10.3159 V 207.3104 186.40675 l 10.18646,-10.19574 10.18646,-10.19575 0.62426,-0.16024 0.62426,-0.16024 10.42209,10.41959 10.4221,10.41959 v 20.7723 20.7723 l -10.38614,10.38365 -10.38614,10.38364 h -0.52092 -0.52092 z m 21.57753,-2.75335 8.71025,-8.70362 v -4.52427 -4.52428 l -10.12031,-10.12287 -10.12031,-10.12288 v -5.6652 -5.66521 l 0.22015,-0.22048 0.22015,-0.22049 9.00209,-0.13229 9.00209,-0.13229 -8.81412,-8.8073 -8.81413,-8.80729 -9.60239,9.59969 -9.60238,9.59968 0.002,4.76386 0.002,4.76386 10.05226,10.04248 10.05226,10.04247 v 5.76638 5.76638 h -9.45739 -9.4574 l 8.98813,8.99104 8.98812,8.99104 1.01944,-0.98739 1.01944,-0.9874 8.71025,-8.70362 z m -11.66266,-13.48223 v -4.32648 l -9.02622,-9.03498 -9.02621,-9.03498 h -0.10191 -0.10191 v 13.36146 13.36145 h 9.12812 9.12813 z"
         style="fill:#7e0000;stroke-width:0.26458335" />
      <path
         id="path2063"
         d="m -342.42182,254.22365 -0.52346,-0.14821 -1.46092,-1.13501 -1.46092,-1.135 -10.08822,-10.1449 -10.08822,-10.14489 -0.62741,-1.19063 -0.6274,-1.19062 v -21.9665 -21.96651 l 0.90148,-1.44912 0.90148,-1.44913 9.81415,-9.87916 9.81414,-9.87916 1.45521,-1.10105 1.45521,-1.10104 2.52712,0.006 2.52712,0.006 0.78017,0.60491 0.78017,0.60491 10.54142,10.502 10.54142,10.50199 0.76952,1.34431 0.76952,1.34431 -0.0111,22.07132 -0.0111,22.07131 -0.46771,0.87727 -0.46771,0.87727 -10.96443,10.9762 -10.96443,10.97621 -0.88506,0.55293 -0.88505,0.55292 -1.76078,0.08 -1.76078,0.08 -0.52345,-0.14821 z m 13.96276,-13.51374 10.55697,-10.51719 0.63572,-0.98693 0.63571,-0.98693 v -20.82381 -20.8238 l -0.52226,-1.07573 -0.52226,-1.07572 -10.53178,-10.51719 -10.53179,-10.51719 h -1.58708 -1.58709 l -0.60115,0.42107 -0.60115,0.42106 -9.92583,9.92999 -9.92583,9.92998 -0.64439,1.02078 -0.64439,1.02078 v 21.02451 21.02451 l 0.56862,1.00731 0.56862,1.00731 9.68398,9.75027 9.68399,9.75027 1.03188,0.76691 1.03189,0.76693 h 1.33532 1.33533 z m -22.9573,-2.17996 -10.32576,-10.3159 V 207.3104 186.40675 l 10.18646,-10.19574 10.18646,-10.19575 0.62426,-0.16024 0.62426,-0.16024 10.42209,10.41959 10.4221,10.41959 v 20.7723 20.7723 l -10.38614,10.38365 -10.38614,10.38364 h -0.52092 -0.52092 z m 21.57753,-2.75335 8.71025,-8.70362 v -4.52427 -4.52428 l -10.12031,-10.12287 -10.12031,-10.12288 v -5.6652 -5.66521 l 0.22015,-0.22048 0.22015,-0.22049 9.00209,-0.13229 9.00209,-0.13229 -8.81412,-8.8073 -8.81413,-8.80729 -9.60239,9.59969 -9.60238,9.59968 0.002,4.76386 0.002,4.76386 10.05226,10.04248 10.05226,10.04247 v 5.76638 5.76638 h -9.45739 -9.4574 l 8.98813,8.99104 8.98812,8.99104 1.01944,-0.98739 1.01944,-0.9874 8.71025,-8.70362 z m -11.66266,-13.48223 v -4.32648 l -9.02622,-9.03498 -9.02621,-9.03498 h -0.10191 -0.10191 v 13.36146 13.36145 h 9.12812 9.12813 z"
         style="fill:#007e00;stroke-width:0.26458335" />
      <path
         id="path2061"
         d="m -342.42182,254.22365 -0.52346,-0.14821 -1.46092,-1.13501 -1.46092,-1.135 -10.08822,-10.1449 -10.08822,-10.14489 -0.62741,-1.19063 -0.6274,-1.19062 v -21.9665 -21.96651 l 0.90148,-1.44912 0.90148,-1.44913 9.81415,-9.87916 9.81414,-9.87916 1.45521,-1.10105 1.45521,-1.10104 2.52712,0.006 2.52712,0.006 0.78017,0.60491 0.78017,0.60491 10.54142,10.502 10.54142,10.50199 0.76952,1.34431 0.76952,1.34431 -0.0111,22.07132 -0.0111,22.07131 -0.46771,0.87727 -0.46771,0.87727 -10.96443,10.9762 -10.96443,10.97621 -0.88506,0.55293 -0.88505,0.55292 -1.76078,0.08 -1.76078,0.08 -0.52345,-0.14821 z m 13.96276,-13.51374 10.55697,-10.51719 0.63572,-0.98693 0.63571,-0.98693 v -20.82381 -20.8238 l -0.52226,-1.07573 -0.52226,-1.07572 -10.53178,-10.51719 -10.53179,-10.51719 h -1.58708 -1.58709 l -0.60115,0.42107 -0.60115,0.42106 -9.92583,9.92999 -9.92583,9.92998 -0.64439,1.02078 -0.64439,1.02078 v 21.02451 21.02451 l 0.56862,1.00731 0.56862,1.00731 9.68398,9.75027 9.68399,9.75027 1.03188,0.76691 1.03189,0.76693 h 1.33532 1.33533 z m -22.9573,-2.17996 -10.32576,-10.3159 V 207.3104 186.40675 l 10.18646,-10.19574 10.18646,-10.19575 0.62426,-0.16024 0.62426,-0.16024 10.42209,10.41959 10.4221,10.41959 v 20.7723 20.7723 l -10.38614,10.38365 -10.38614,10.38364 h -0.52092 -0.52092 z m 21.57753,-2.75335 8.71025,-8.70362 v -4.52427 -4.52428 l -10.12031,-10.12287 -10.12031,-10.12288 v -5.6652 -5.66521 l 0.22015,-0.22048 0.22015,-0.22049 9.00209,-0.13229 9.00209,-0.13229 -8.81412,-8.8073 -8.81413,-8.80729 -9.60239,9.59969 -9.60238,9.59968 0.002,4.76386 0.002,4.76386 10.05226,10.04248 10.05226,10.04247 v 5.76638 5.76638 h -9.45739 -9.4574 l 8.98813,8.99104 8.98812,8.99104 1.01944,-0.98739 1.01944,-0.9874 8.71025,-8.70362 z m -11.66266,-13.57884 v -4.42307 l -9.06198,-9.06975 -9.06198,-9.06975 -0.19844,-7.9e-4 -0.19844,-0.001 v 13.49375 13.49375 h 9.26042 9.26042 z"
         style="fill:#00007e;stroke-width:0.26458335" />
      <path
         id="path2059"
         d="m -342.42182,254.22365 -0.52346,-0.14821 -1.46092,-1.13501 -1.46092,-1.135 -10.08822,-10.1449 -10.08822,-10.14489 -0.62741,-1.19063 -0.6274,-1.19062 v -21.9665 -21.96651 l 0.90148,-1.44912 0.90148,-1.44913 9.81415,-9.87916 9.81414,-9.87916 1.45521,-1.10105 1.45521,-1.10104 2.52712,0.006 2.52712,0.006 0.78017,0.60491 0.78017,0.60491 10.54142,10.502 10.54142,10.50199 0.76952,1.34431 0.76952,1.34431 -0.0111,22.07132 -0.0111,22.07131 -0.46771,0.87727 -0.46771,0.87727 -10.96443,10.9762 -10.96443,10.97621 -0.88506,0.55293 -0.88505,0.55292 -1.76078,0.08 -1.76078,0.08 -0.52345,-0.14821 z m 3.7249,-3.49169 1.03189,-0.75971 10.15544,-10.17995 10.15545,-10.17994 0.35237,-0.63586 0.35236,-0.63586 0.009,-20.98137 0.009,-20.98137 -0.42245,-0.84676 -0.42245,-0.84676 -10.35932,-10.40216 -10.35932,-10.40216 -0.71447,-0.37961 -0.71446,-0.37961 h -0.81743 -0.81743 l -0.98165,0.51125 -0.98165,0.51125 -9.82866,9.87365 -9.82867,9.87364 -0.75467,1.19063 -0.75466,1.19062 -0.0745,20.50521 -0.0745,20.50521 0.44064,1.19063 0.44065,1.19062 9.82034,9.88481 9.82034,9.88481 1.28054,1.02925 1.28053,1.02926 h 0.86258 0.86258 z m -12.43819,-12.10181 -10.22281,-10.2157 -0.25825,-0.48253 -0.25824,-0.48254 v -20.14312 -20.14312 l 0.25824,-0.48254 0.25825,-0.48253 10.22281,-10.2157 10.22281,-10.2157 h 0.43427 0.43426 l 10.38364,10.38614 10.38364,10.38614 v 20.76981 20.7698 l -10.38614,10.38365 -10.38614,10.38364 h -0.43176 -0.43177 z m 21.29628,-2.85355 8.71025,-8.70362 v -4.52427 -4.52428 l -10.12031,-10.12287 -10.12031,-10.12288 v -5.6652 -5.66521 l 0.22015,-0.22048 0.22015,-0.22049 9.00209,-0.13229 9.00209,-0.13229 -8.81412,-8.8073 -8.81413,-8.80729 -9.60239,9.59969 -9.60238,9.59968 0.002,4.76386 0.002,4.76386 10.05226,10.04248 10.05226,10.04247 v 5.76638 5.76638 h -9.45739 -9.4574 l 8.98813,8.99104 8.98812,8.99104 1.01944,-0.98739 1.01944,-0.9874 8.71025,-8.70362 z m -11.66266,-13.57884 v -4.42307 l -9.06198,-9.06975 -9.06198,-9.06975 -0.19844,-7.9e-4 -0.19844,-0.001 v 13.49375 13.49375 h 9.26042 9.26042 z"
         style="fill:#005f00;stroke-width:0.26458335" />
      <path
         id="path2057"
         d="m -342.42182,254.22365 -0.52346,-0.14821 -1.46092,-1.13501 -1.46092,-1.135 -10.08822,-10.1449 -10.08822,-10.14489 -0.62741,-1.19063 -0.6274,-1.19062 v -21.9665 -21.96651 l 0.90148,-1.44912 0.90148,-1.44913 9.81415,-9.87916 9.81414,-9.87916 1.45521,-1.10105 1.45521,-1.10104 2.52712,0.006 2.52712,0.006 0.78017,0.60491 0.78017,0.60491 10.54142,10.502 10.54142,10.50199 0.76952,1.34431 0.76952,1.34431 -0.0111,22.07132 -0.0111,22.07131 -0.46771,0.87727 -0.46771,0.87727 -10.96443,10.9762 -10.96443,10.97621 -0.88506,0.55293 -0.88505,0.55292 -1.76078,0.08 -1.76078,0.08 -0.52345,-0.14821 z m 3.7249,-3.49169 1.03189,-0.75971 10.15544,-10.17995 10.15545,-10.17994 0.35237,-0.63586 0.35236,-0.63586 0.009,-20.98137 0.009,-20.98137 -0.42245,-0.84676 -0.42245,-0.84676 -10.35932,-10.40216 -10.35932,-10.40216 -0.71447,-0.37961 -0.71446,-0.37961 h -0.81743 -0.81743 l -0.98165,0.51125 -0.98165,0.51125 -9.82866,9.87365 -9.82867,9.87364 -0.75467,1.19063 -0.75466,1.19062 -0.0745,20.50521 -0.0745,20.50521 0.44064,1.19063 0.44065,1.19062 9.82034,9.88481 9.82034,9.88481 1.28054,1.02925 1.28053,1.02926 h 0.86258 0.86258 z m -12.43819,-12.10181 -10.22281,-10.2157 -0.25825,-0.48253 -0.25824,-0.48254 v -20.14312 -20.14312 l 0.25824,-0.48254 0.25825,-0.48253 10.22281,-10.2157 10.22281,-10.2157 h 0.43427 0.43426 l 10.38364,10.38614 10.38364,10.38614 v 20.76981 20.7698 l -10.38614,10.38365 -10.38614,10.38364 h -0.43176 -0.43177 z m 21.29628,-2.85355 8.71025,-8.70362 v -4.52427 -4.52428 l -10.12031,-10.12227 -10.12031,-10.12227 -0.0818,-5.31357 -0.0818,-5.31357 0.4163,-0.63536 0.4163,-0.63535 8.8875,-0.0697 8.8875,-0.0697 -8.81391,-8.8073 -8.81391,-8.80729 -9.60239,9.59969 -9.60238,9.59968 v 4.76516 4.76517 l 10.05791,10.05286 10.05793,10.05286 -0.0699,5.68854 -0.0699,5.68855 -9.3878,0.0696 -9.3878,0.0696 8.98468,8.98759 8.98467,8.98759 1.01944,-0.98739 1.01943,-0.9874 z m -11.66266,-13.57884 v -4.42307 l -9.06198,-9.06975 -9.06198,-9.06975 -0.19844,-7.9e-4 -0.19844,-0.001 v 13.49375 13.49375 h 9.26042 9.26042 z"
         style="fill:#003f00;stroke-width:0.26458335" />
      <path
         id="path2055"
         d="m -342.42182,254.22365 -0.52346,-0.14821 -1.46092,-1.13501 -1.46092,-1.135 -10.08822,-10.1449 -10.08822,-10.14489 -0.62741,-1.19063 -0.6274,-1.19062 v -21.9665 -21.96651 l 0.90148,-1.44912 0.90148,-1.44913 9.81415,-9.87916 9.81414,-9.87916 1.45521,-1.10105 1.45521,-1.10104 2.52712,0.006 2.52712,0.006 0.78017,0.60491 0.78017,0.60491 10.54142,10.502 10.54142,10.50199 0.76952,1.34431 0.76952,1.34431 -0.0111,22.07132 -0.0111,22.07131 -0.46771,0.87727 -0.46771,0.87727 -10.96443,10.9762 -10.96443,10.97621 -0.88506,0.55293 -0.88505,0.55292 -1.76078,0.08 -1.76078,0.08 -0.52345,-0.14821 z m 3.7249,-3.49169 1.03189,-0.75971 10.15544,-10.17995 10.15545,-10.17994 0.35237,-0.63586 0.35236,-0.63586 0.009,-20.98137 0.009,-20.98137 -0.42245,-0.84676 -0.42245,-0.84676 -10.35932,-10.40216 -10.35932,-10.40216 -0.71447,-0.37961 -0.71446,-0.37961 h -0.81743 -0.81743 l -0.98165,0.51125 -0.98165,0.51125 -9.82866,9.87365 -9.82867,9.87364 -0.75467,1.19063 -0.75466,1.19062 -0.0745,20.50521 -0.0745,20.50521 0.44064,1.19063 0.44065,1.19062 9.82034,9.88481 9.82034,9.88481 1.28054,1.02925 1.28053,1.02926 h 0.86258 0.86258 z m -12.43819,-12.10181 -10.22281,-10.2157 -0.25825,-0.48253 -0.25824,-0.48254 v -20.14312 -20.14312 l 0.25824,-0.48254 0.25825,-0.48253 10.22281,-10.2157 10.22281,-10.2157 h 0.43427 0.43426 l 10.38364,10.38614 10.38364,10.38614 v 20.76981 20.7698 l -10.38614,10.38365 -10.38614,10.38364 h -0.43176 -0.43177 z m 20.39639,-1.7567 9.60381,-9.59115 0.003,-4.70894 0.003,-4.70894 -9.91761,-9.91873 -9.91762,-9.91872 -0.26884,-0.50234 -0.26884,-0.50233 v -5.04448 -5.04448 l 0.52916,-0.52916 0.52917,-0.52917 h 8.91346 8.91346 l -8.84731,-8.85974 -8.84732,-8.85974 -0.17201,-0.004 -0.17202,-0.004 -9.68371,9.6615 -9.68372,9.66149 v 4.56115 4.56115 l 10.19021,10.18517 10.1902,10.18517 -0.0699,5.68854 -0.0699,5.68855 -9.37644,0.13229 -9.37643,0.13229 8.93411,8.92969 8.93412,8.92969 h 0.1619 0.16191 z m -10.76277,-14.67569 v -4.42307 l -9.06198,-9.06975 -9.06198,-9.06975 -0.19844,-7.9e-4 -0.19844,-0.001 v 13.49375 13.49375 h 9.26042 9.26042 z m 20.37291,-20.71233 v -13.49375 h -9.26041 -9.26042 v 4.29808 4.29808 l 9.19285,9.19567 9.19286,9.19567 h 0.0676 0.0676 z"
         style="fill:#3e0000;stroke-width:0.26458335" />
      <path
         id="path2053"
         d="m -342.28214,254.22384 -0.64836,-0.13703 -1.46831,-1.14069 -1.46831,-1.14069 -10.07479,-10.1449 -10.07478,-10.14489 -0.64084,-1.19063 -0.64084,-1.19062 v -21.9665 -21.96651 l 0.91926,-1.44912 0.91926,-1.44913 10.19324,-10.18885 10.19324,-10.18886 1.05749,-0.78848 1.05748,-0.78847 h 2.52452 2.52451 l 0.78363,0.60763 0.78362,0.60763 10.5377,10.50199 10.5377,10.502 0.77324,1.37476 0.77324,1.37476 v 21.97568 21.97568 l -0.52982,0.99122 -0.52981,0.99123 -10.91342,10.92744 -10.91341,10.92743 -0.87643,0.54759 -0.87642,0.54759 -1.63712,0.0799 -1.63712,0.0799 z m 3.58522,-3.49188 1.03189,-0.75971 10.15544,-10.17995 10.15545,-10.17994 0.35237,-0.63586 0.35236,-0.63586 0.009,-20.98137 0.009,-20.98137 -0.42245,-0.84676 -0.42245,-0.84676 -10.35932,-10.40216 -10.35932,-10.40216 -0.71447,-0.37961 -0.71446,-0.37961 h -0.81743 -0.81743 l -0.98165,0.51125 -0.98165,0.51125 -9.82866,9.87365 -9.82867,9.87364 -0.75467,1.19063 -0.75466,1.19062 -0.0745,20.50521 -0.0745,20.50521 0.44064,1.19063 0.44065,1.19062 9.82034,9.88481 9.82034,9.88481 1.28054,1.02925 1.28053,1.02926 h 0.86258 0.86258 z m -12.43819,-12.10181 -10.22281,-10.2157 -0.25825,-0.48253 -0.25824,-0.48254 v -20.14312 -20.14312 l 0.25824,-0.48254 0.25825,-0.48253 10.22281,-10.2157 10.22281,-10.2157 h 0.43427 0.43426 l 10.38364,10.38614 10.38364,10.38614 v 20.76981 20.7698 l -10.38614,10.38365 -10.38614,10.38364 h -0.43176 -0.43177 z m 20.39639,-1.7567 9.60381,-9.59115 0.003,-4.70894 0.003,-4.70894 -9.91761,-9.91873 -9.91762,-9.91872 -0.26884,-0.50234 -0.26884,-0.50233 v -5.04448 -5.04448 l 0.52916,-0.52916 0.52917,-0.52917 h 8.91346 8.91346 l -8.84731,-8.85974 -8.84732,-8.85974 -0.17201,-0.004 -0.17202,-0.004 -9.68371,9.6615 -9.68372,9.66149 v 4.56115 4.56115 l 10.19021,10.18517 10.1902,10.18517 -0.0699,5.68854 -0.0699,5.68855 -9.37644,0.13229 -9.37643,0.13229 8.93411,8.92969 8.93412,8.92969 h 0.1619 0.16191 z m -10.76277,-14.67569 v -4.42307 l -9.06198,-9.06975 -9.06198,-9.06975 -0.19844,-7.9e-4 -0.19844,-0.001 v 13.49375 13.49375 h 9.26042 9.26042 z m 20.37291,-20.71233 v -13.49375 h -9.26041 -9.26042 v 4.29808 4.29808 l 9.19285,9.19567 9.19286,9.19567 h 0.0676 0.0676 z"
         style="fill:#00003e;stroke-width:0.26458335" />
      <path
         id="path2051"
         d="m -342.28214,254.22384 -0.64836,-0.13703 -1.46831,-1.14069 -1.46831,-1.14069 -10.07479,-10.1449 -10.07478,-10.14489 -0.64084,-1.19063 -0.64084,-1.19062 v -21.9665 -21.96651 l 0.91926,-1.44912 0.91926,-1.44913 10.19324,-10.18885 10.19324,-10.18886 1.05749,-0.78848 1.05748,-0.78847 h 2.52452 2.52451 l 0.78363,0.60763 0.78362,0.60763 10.5377,10.50199 10.5377,10.502 0.77324,1.37476 0.77324,1.37476 v 21.97568 21.97568 l -0.52982,0.99122 -0.52981,0.99123 -10.91342,10.92744 -10.91341,10.92743 -0.87643,0.54759 -0.87642,0.54759 -1.63712,0.0799 -1.63712,0.0799 z m 3.22916,-3.19518 0.81036,-0.46302 10.47525,-10.464 10.47525,-10.46399 0.33073,-0.7271 0.33073,-0.72711 v -20.85925 -20.85926 l -0.36147,-0.85969 -0.36147,-0.85968 -10.4203,-10.4356 -10.4203,-10.43559 -0.71447,-0.37677 -0.71446,-0.37676 h -0.81743 -0.81743 l -0.98165,0.50873 -0.98165,0.50872 -10.0825,10.14076 -10.0825,10.14075 -0.50083,0.92604 -0.50083,0.92604 -0.0745,20.50521 -0.0745,20.50521 0.45234,1.19046 0.45234,1.19046 0.28364,0.30967 0.28365,0.30966 9.78959,9.84118 9.78958,9.84118 1.03189,0.76338 1.03188,0.76339 h 0.77938 0.77937 z m -12.08213,-12.39851 -10.22281,-10.2157 -0.25825,-0.48253 -0.25824,-0.48254 v -20.14312 -20.14312 l 0.25824,-0.48254 0.25825,-0.48253 10.22281,-10.2157 10.22281,-10.2157 h 0.3843 0.3843 l 10.4336,10.42688 10.43361,10.42688 v 20.68583 20.68583 l -10.43361,10.42688 -10.4336,10.42688 h -0.3843 -0.3843 z m 20.39639,-1.7567 9.60381,-9.59115 0.003,-4.70894 0.003,-4.70894 -9.91761,-9.91873 -9.91762,-9.91872 -0.26884,-0.50234 -0.26884,-0.50233 v -5.04448 -5.04448 l 0.52916,-0.52916 0.52917,-0.52917 h 8.91346 8.91346 l -8.84731,-8.85974 -8.84732,-8.85974 -0.17201,-0.004 -0.17202,-0.004 -9.68371,9.6615 -9.68372,9.66149 v 4.56115 4.56115 l 10.19021,10.18517 10.1902,10.18517 -0.0699,5.68854 -0.0699,5.68855 -9.37644,0.13229 -9.37643,0.13229 8.93411,8.92969 8.93412,8.92969 h 0.1619 0.16191 z m -10.76277,-14.67569 v -4.42307 l -9.06198,-9.06975 -9.06198,-9.06975 -0.19844,-7.9e-4 -0.19844,-0.001 v 13.49375 13.49375 h 9.26042 9.26042 z m 20.37291,-20.71233 v -13.49375 h -9.26041 -9.26042 v 4.29808 4.29808 l 9.19285,9.19567 9.19286,9.19567 h 0.0676 0.0676 z"
         style="fill:#001f00;stroke-width:0.26458335" />
      <path
         id="path2049"
         d="m -342.28214,254.22384 -0.64836,-0.13703 -1.46831,-1.14069 -1.46831,-1.14069 -10.07479,-10.1449 -10.07478,-10.14489 -0.64084,-1.19063 -0.64084,-1.19062 v -21.9665 -21.96651 l 0.91926,-1.44912 0.91926,-1.44913 10.19324,-10.18885 10.19324,-10.18886 1.05749,-0.78848 1.05748,-0.78847 h 2.52452 2.52451 l 0.78363,0.60763 0.78362,0.60763 10.5377,10.50199 10.5377,10.502 0.77324,1.37476 0.77324,1.37476 v 21.97568 21.97568 l -0.52982,0.99122 -0.52981,0.99123 -10.91342,10.92744 -10.91341,10.92743 -0.87643,0.54759 -0.87642,0.54759 -1.63712,0.0799 -1.63712,0.0799 z m 3.22916,-3.19518 0.81036,-0.46302 10.47525,-10.464 10.47525,-10.46399 0.33073,-0.7271 0.33073,-0.72711 v -20.85925 -20.85926 l -0.36147,-0.85969 -0.36147,-0.85968 -10.4203,-10.4356 -10.4203,-10.43559 -0.71447,-0.37677 -0.71446,-0.37676 h -0.81743 -0.81743 l -0.98165,0.50873 -0.98165,0.50872 -10.0825,10.14076 -10.0825,10.14075 -0.50083,0.92604 -0.50083,0.92604 -0.0745,20.50521 -0.0745,20.50521 0.45234,1.19046 0.45234,1.19046 0.28364,0.30967 0.28365,0.30966 9.78959,9.84118 9.78958,9.84118 1.03189,0.76338 1.03188,0.76339 h 0.77938 0.77937 z m -12.08213,-12.39851 -10.22281,-10.2157 -0.25825,-0.48253 -0.25824,-0.48254 v -20.14312 -20.14312 l 0.25824,-0.48254 0.25825,-0.48253 10.22281,-10.2157 10.22281,-10.2157 h 0.3843 0.3843 l 10.4336,10.42688 10.43361,10.42688 v 20.68583 20.68583 l -10.43361,10.42688 -10.4336,10.42688 h -0.3843 -0.3843 z m 20.39639,-1.7567 9.60381,-9.59115 0.003,-4.71549 0.003,-4.7155 -9.85573,-9.87471 -9.85573,-9.87472 -0.33073,-0.55359 -0.33073,-0.5536 v -5.03067 -5.03068 l 0.52917,-0.52916 0.52917,-0.52917 h 8.91346 8.91346 l -8.84733,-8.85974 -8.84732,-8.85974 -0.19802,-0.004 -0.19802,-0.004 -9.65771,9.64429 -9.65771,9.64429 v 4.61648 4.61648 l 10.19176,10.19913 10.19176,10.19912 -0.0714,5.63646 -0.0715,5.63647 -9.32656,0.0695 -9.32657,0.0695 v 0.13692 0.13691 l 8.86176,8.85553 8.86175,8.85554 h 0.1844 0.18439 z m -10.76277,-14.67569 v -4.42307 l -9.06198,-9.06975 -9.06198,-9.06975 -0.19844,-7.9e-4 -0.19844,-0.001 v 13.49375 13.49375 h 9.26042 9.26042 z m 20.37291,-20.84463 v -13.62604 h -9.26041 -9.26042 v 4.49301 4.493 l 9.06198,9.112 9.06198,9.112 0.19844,0.021 0.19843,0.021 v -13.62604 z"
         style="fill:#000f00;stroke-width:0.26458335" />
      <path
         id="path2047"
         d="m -342.28214,254.22384 -0.64836,-0.13703 -1.46831,-1.14069 -1.46831,-1.14069 -10.07479,-10.1449 -10.07478,-10.14489 -0.64084,-1.19063 -0.64084,-1.19062 v -21.9665 -21.96651 l 0.91926,-1.44912 0.91926,-1.44913 10.19324,-10.18885 10.19324,-10.18886 1.05749,-0.78848 1.05748,-0.78847 h 2.52452 2.52451 l 0.78363,0.60763 0.78362,0.60763 10.5377,10.50199 10.5377,10.502 0.77324,1.37476 0.77324,1.37476 v 21.97568 21.97568 l -0.52982,0.99122 -0.52981,0.99123 -10.91342,10.92744 -10.91341,10.92743 -0.87643,0.54759 -0.87642,0.54759 -1.63712,0.0799 -1.63712,0.0799 z m 3.22916,-3.19518 0.81036,-0.46302 10.47525,-10.464 10.47525,-10.46399 0.33073,-0.7271 0.33073,-0.72711 v -20.85925 -20.85926 l -0.36147,-0.85969 -0.36147,-0.85968 -10.4203,-10.4356 -10.4203,-10.43559 -0.71447,-0.37677 -0.71446,-0.37676 h -0.81743 -0.81743 l -0.98165,0.50873 -0.98165,0.50872 -10.0825,10.14076 -10.0825,10.14075 -0.50083,0.92604 -0.50083,0.92604 -0.0745,20.50521 -0.0745,20.50521 0.45234,1.19046 0.45234,1.19046 0.28364,0.30967 0.28365,0.30966 9.78959,9.84118 9.78958,9.84118 1.03189,0.76338 1.03188,0.76339 h 0.77938 0.77937 z m -12.08213,-12.39851 -10.22281,-10.2157 -0.25825,-0.48253 -0.25824,-0.48254 v -20.14312 -20.14312 l 0.25824,-0.48254 0.25825,-0.48253 10.22281,-10.2157 10.22281,-10.2157 h 0.3843 0.3843 l 10.4336,10.42688 10.43361,10.42688 v 20.68583 20.68583 l -10.43361,10.42688 -10.4336,10.42688 h -0.3843 -0.3843 z m 20.39639,-1.7567 9.60381,-9.59115 0.003,-4.71549 0.003,-4.7155 -9.85573,-9.87471 -9.85573,-9.87472 -0.33073,-0.55359 -0.33073,-0.5536 v -5.03067 -5.03068 l 0.52917,-0.52916 0.52917,-0.52917 h 8.91346 8.91346 l -8.84733,-8.85974 -8.84732,-8.85974 -0.19802,-0.004 -0.19802,-0.004 -9.65771,9.64429 -9.65771,9.64429 v 4.61648 4.61648 l 10.19176,10.19913 10.19176,10.19912 -0.0714,5.63646 -0.0715,5.63647 -9.32656,0.0695 -9.32657,0.0695 v 0.13692 0.13691 l 8.86176,8.85553 8.86175,8.85554 h 0.1844 0.18439 z m -10.76277,-14.67569 v -4.42307 l -9.06198,-9.06975 -9.06198,-9.06975 -0.19844,-7.9e-4 -0.19844,-0.001 v 13.49375 13.49375 h 9.26042 9.26042 z m 20.37291,-20.84463 v -13.62604 h -9.26041 -9.26042 v 4.50868 4.50868 l 9.06198,9.10133 9.06198,9.10132 0.19844,0.016 0.19843,0.016 v -13.62604 z"
         style="fill:#000000;stroke-width:0.26458335" />
    </g>
  </g>
</svg>
