<svg xmlns="http://www.w3.org/2000/svg" viewBox="0 0 1024 1024"><defs><style>.cls-1{opacity:0.5;}.cls-2{fill:#ed1c24;}.cls-3{fill:#21409a;stroke-width:13px;}.cls-3,.cls-4,.cls-5,.cls-6{stroke:#231f20;stroke-miterlimit:10;}.cls-4{fill:#348734;}.cls-4,.cls-5,.cls-6{stroke-width:10px;}.cls-5{fill:#0f571a;}.cls-6{fill:#50b848;}</style></defs><g id="_Layer_2" data-name="&lt;Layer&gt;"><rect class="cls-2" width="1024" height="1024"/><path class="cls-3" d="M719.87,305.25l-190.57-179a23.39,23.39,0,0,0-32.6,0l-190.57,179a28.82,28.82,0,0,0-8.8,21V697.76a28.82,28.82,0,0,0,8.8,21l190.57,179a23.39,23.39,0,0,0,32.6,0l190.57-179a28.82,28.82,0,0,0,8.8-21V326.24A28.82,28.82,0,0,0,719.87,305.25ZM697.28,677.87a26.25,26.25,0,0,1-7.55,18.74L526.12,856.41a19.54,19.54,0,0,1-28,0L334.52,696.61A26.25,26.25,0,0,1,327,677.87V346.13a26.25,26.25,0,0,1,7.55-18.74l163.61-159.8a19.54,19.54,0,0,1,28,0l163.61,159.8a26.25,26.25,0,0,1,7.55,18.74Z"/><path class="cls-4" d="M697.28,350.61H512.13l185.15,250v77.26a26.25,26.25,0,0,1-7.55,18.74L526.12,856.41a19.54,19.54,0,0,1-28,0L334.52,696.61A26.25,26.25,0,0,1,327,677.87v-4.49H512.13L327,423.38V346.13a26.25,26.25,0,0,1,7.55-18.74l163.61-159.8a19.54,19.54,0,0,1,28,0l163.61,159.8a26.25,26.25,0,0,1,7.55,18.74Z"/><polygon class="cls-5" points="697.28 350.61 697.28 600.61 512.13 350.61 697.28 350.61"/><polygon class="cls-6" points="512.13 673.38 326.97 673.38 326.97 423.38 512.13 673.38"/></g></svg>