<?xml version="1.0" encoding="UTF-8" standalone="no"?>
<svg
   xmlns:dc="http://purl.org/dc/elements/1.1/"
   xmlns:cc="http://creativecommons.org/ns#"
   xmlns:rdf="http://www.w3.org/1999/02/22-rdf-syntax-ns#"
   xmlns:svg="http://www.w3.org/2000/svg"
   xmlns="http://www.w3.org/2000/svg"
   viewBox="0 0 43.438667 42.366489"
   height="42.366489"
   width="43.438667"
   xml:space="preserve"
   id="svg2"
   version="1.1"><metadata
     id="metadata8"><rdf:RDF><cc:Work
         rdf:about=""><dc:format>image/svg+xml</dc:format><dc:type
           rdf:resource="http://purl.org/dc/dcmitype/StillImage" /><dc:title></dc:title></cc:Work></rdf:RDF></metadata><defs
     id="defs6"><clipPath
       id="clipPath20"
       clipPathUnits="userSpaceOnUse"><path
         id="path18"
         d="M 0,551.986 H 530.973 V 0 H 0 Z" /></clipPath></defs><g
     transform="matrix(1.3333333,0,0,-1.3333333,-181.7604,592.72719)"
     id="g10"><g
       id="g14"><g
         clip-path="url(#clipPath20)"
         id="g16"><g
           transform="translate(152.6083,444.5454)"
           id="g22"><path
             id="path24"
             style="fill:#1b1817;fill-opacity:1;fill-rule:evenodd;stroke:none"
             d="m 0,0 c -8.995,0 -16.288,-7.293 -16.288,-16.29 0,-7.197 4.667,-13.302 11.14,-15.457 0.815,-0.149 1.112,0.354 1.112,0.786 0,0.386 -0.014,1.411 -0.022,2.77 -4.531,-0.984 -5.487,2.184 -5.487,2.184 -0.741,1.881 -1.809,2.382 -1.809,2.382 -1.479,1.011 0.112,0.991 0.112,0.991 1.635,-0.116 2.495,-1.679 2.495,-1.679 1.453,-2.489 3.813,-1.77 4.741,-1.354 0.148,1.053 0.568,1.771 1.034,2.178 -3.617,0.411 -7.42,1.809 -7.42,8.051 0,1.778 0.635,3.232 1.677,4.371 -0.168,0.412 -0.727,2.068 0.159,4.311 0,0 1.368,0.438 4.48,-1.67 1.299,0.361 2.693,0.542 4.078,0.548 1.383,-0.006 2.777,-0.187 4.078,-0.548 3.11,2.108 4.475,1.67 4.475,1.67 0.889,-2.243 0.33,-3.899 0.162,-4.311 1.044,-1.139 1.675,-2.593 1.675,-4.371 0,-6.258 -3.809,-7.635 -7.438,-8.038 0.585,-0.503 1.106,-1.497 1.106,-3.017 0,-2.177 -0.02,-3.934 -0.02,-4.468 0,-0.436 0.293,-0.943 1.12,-0.784 6.468,2.159 11.131,8.26 11.131,15.455 C 16.291,-7.293 8.997,0 0,0" /></g><g
           transform="translate(350.6088,493.5547)"
           id="g26" /><g
           transform="translate(313.0932,406.8515)"
           id="g30" /><g
           transform="translate(315.5395,404.123)"
           id="g34" /><g
           transform="translate(317.9204,400.6455)"
           id="g38" /><g
           transform="translate(321.1821,397.2851)"
           id="g42" /><g
           transform="translate(325.6821,395.334)"
           id="g46" /><g
           transform="translate(330.6245,394.9726)"
           id="g50" /><g
           transform="translate(335.2231,395.7549)"
           id="g54" /><g
           transform="translate(224.8979,499.4882)"
           id="g58"><path
             id="path60"
             style="fill:none;stroke:#3a7fc3;stroke-width:1;stroke-linecap:round;stroke-linejoin:miter;stroke-miterlimit:10;stroke-dasharray:none;stroke-opacity:1"
             d="M 0,0 V -0.5" /></g><g
           transform="translate(224.8979,496.9882)"
           id="g62" /><g
           transform="translate(224.8979,361.9951)"
           id="g66"><path
             id="path68"
             style="fill:none;stroke:#3a7fc3;stroke-width:1;stroke-linecap:round;stroke-linejoin:miter;stroke-miterlimit:10;stroke-dasharray:none;stroke-opacity:1"
             d="M 0,0 V -0.5" /></g><g
           transform="translate(133.2758,347.4795)"
           id="g70" /><g
           transform="translate(137.5537,346.2851)"
           id="g74" /><g
           transform="translate(150.1655,343.0761)"
           id="g78" /><g
           transform="translate(101.854,330.9863)"
           id="g86" /><g
           transform="translate(106.9238,327.7754)"
           id="g90" /><g
           transform="translate(113.8417,331.8857)"
           id="g94" /><g
           transform="translate(122.7333,325.6816)"
           id="g98" /><g
           transform="translate(128.8295,330.1035)"
           id="g102" /><g
           transform="translate(138.3159,329.6836)"
           id="g106" /><g
           transform="translate(140.2172,331.8857)"
           id="g110" /><g
           transform="translate(154.0771,325.6816)"
           id="g116" /><g
           transform="translate(158.1572,332.3769)"
           id="g120" /><g
           transform="translate(165.7832,328.7949)"
           id="g124" /><g
           transform="translate(176.3315,329.6836)"
           id="g128" /><g
           transform="translate(178.2329,331.8857)"
           id="g132" /><g
           transform="translate(335.6333,348.6504)"
           id="g136" /><g
           transform="translate(344.3334,343.0761)"
           id="g140" /><g
           transform="translate(348.3647,346.2871)"
           id="g144" /><g
           transform="translate(354.4545,341.1211)"
           id="g148" /><g
           transform="translate(362.1342,344.4629)"
           id="g152" /><g
           transform="translate(365.3569,346.2871)"
           id="g156" /><g
           transform="translate(318.2573,330.9863)"
           id="g160" /><g
           transform="translate(323.3276,327.7773)"
           id="g164" /><g
           transform="translate(330.2456,331.8867)"
           id="g168" /><g
           transform="translate(339.1362,325.6826)"
           id="g172" /><g
           transform="translate(343.2172,332.3789)"
           id="g176" /><g
           transform="translate(350.8432,328.7968)"
           id="g180" /><g
           transform="translate(361.3911,329.6845)"
           id="g184" /><g
           transform="translate(363.2924,331.8867)"
           id="g188" /><g
           transform="translate(379.1928,329.1269)"
           id="g192" /><g
           transform="translate(152.6083,168.5454)"
           id="g196"><path
             id="path198"
             style="fill:#ffffff;fill-opacity:1;fill-rule:evenodd;stroke:none"
             d="m 0,0 c -8.995,0 -16.288,-7.293 -16.288,-16.29 0,-7.197 4.667,-13.302 11.14,-15.457 0.815,-0.149 1.112,0.354 1.112,0.786 0,0.386 -0.014,1.411 -0.022,2.77 -4.531,-0.984 -5.487,2.184 -5.487,2.184 -0.741,1.882 -1.809,2.383 -1.809,2.383 -1.479,1.01 0.112,0.99 0.112,0.99 1.635,-0.115 2.495,-1.679 2.495,-1.679 1.453,-2.489 3.813,-1.77 4.741,-1.353 0.148,1.052 0.568,1.77 1.034,2.177 -3.617,0.411 -7.42,1.809 -7.42,8.051 0,1.778 0.635,3.232 1.677,4.371 -0.168,0.412 -0.727,2.068 0.159,4.311 0,0 1.368,0.438 4.48,-1.67 1.299,0.362 2.693,0.542 4.078,0.548 1.383,-0.006 2.777,-0.186 4.078,-0.548 3.11,2.108 4.475,1.67 4.475,1.67 0.889,-2.243 0.33,-3.899 0.162,-4.311 1.044,-1.139 1.675,-2.593 1.675,-4.371 0,-6.258 -3.809,-7.635 -7.438,-8.038 0.585,-0.503 1.106,-1.497 1.106,-3.017 0,-2.177 -0.02,-3.934 -0.02,-4.468 0,-0.436 0.293,-0.943 1.12,-0.784 6.468,2.159 11.131,8.26 11.131,15.455 C 16.291,-7.293 8.997,0 0,0" /></g><g
           transform="translate(350.6088,217.5547)"
           id="g200" /><g
           transform="translate(313.0932,130.8515)"
           id="g204"><path
             id="path206"
             style="fill:#ffffff;fill-opacity:1;fill-rule:nonzero;stroke:none"
             d="m 0,0 c -0.133,-0.301 -0.605,-0.391 -1.035,-0.184 -0.439,0.197 -0.684,0.606 -0.542,0.907 0.13,0.308 0.602,0.394 1.04,0.188 C -0.099,0.714 0.151,0.301 0,0" /></g><g
           transform="translate(315.5395,128.123)"
           id="g208"><path
             id="path210"
             style="fill:#ffffff;fill-opacity:1;fill-rule:nonzero;stroke:none"
             d="M 0,0 C -0.288,-0.267 -0.852,-0.143 -1.233,0.279 -1.629,0.7 -1.702,1.264 -1.41,1.534 -1.113,1.801 -0.567,1.676 -0.172,1.255 0.224,0.829 0.301,0.27 0,0" /></g><g
           transform="translate(317.9204,124.6455)"
           id="g212"><path
             id="path214"
             style="fill:#ffffff;fill-opacity:1;fill-rule:nonzero;stroke:none"
             d="M 0,0 C -0.37,-0.258 -0.976,-0.017 -1.35,0.52 -1.72,1.058 -1.72,1.702 -1.341,1.96 -0.967,2.218 -0.37,1.985 0.009,1.453 0.378,0.907 0.378,0.263 0,0" /></g><g
           transform="translate(321.1821,121.2851)"
           id="g216"><path
             id="path218"
             style="fill:#ffffff;fill-opacity:1;fill-rule:nonzero;stroke:none"
             d="M 0,0 C -0.331,-0.365 -1.036,-0.267 -1.552,0.231 -2.08,0.718 -2.227,1.409 -1.896,1.774 -1.56,2.14 -0.851,2.037 -0.331,1.543 0.193,1.057 0.352,0.361 0,0" /></g><g
           transform="translate(325.6821,119.334)"
           id="g220"><path
             id="path222"
             style="fill:#ffffff;fill-opacity:1;fill-rule:nonzero;stroke:none"
             d="m 0,0 c -0.147,-0.473 -0.825,-0.687 -1.509,-0.486 -0.683,0.207 -1.13,0.76 -0.992,1.238 0.142,0.477 0.824,0.7 1.513,0.485 C -0.306,1.031 0.142,0.481 0,0" /></g><g
           transform="translate(330.6245,118.9726)"
           id="g224"><path
             id="path226"
             style="fill:#ffffff;fill-opacity:1;fill-rule:nonzero;stroke:none"
             d="m 0,0 c 0.017,-0.498 -0.563,-0.911 -1.281,-0.92 -0.722,-0.017 -1.307,0.387 -1.315,0.877 0,0.503 0.568,0.911 1.289,0.924 C -0.589,0.895 0,0.494 0,0" /></g><g
           transform="translate(335.2231,119.7549)"
           id="g228"><path
             id="path230"
             style="fill:#ffffff;fill-opacity:1;fill-rule:nonzero;stroke:none"
             d="m 0,0 c 0.086,-0.485 -0.413,-0.984 -1.126,-1.117 -0.701,-0.129 -1.35,0.172 -1.439,0.653 -0.087,0.498 0.42,0.997 1.121,1.126 C -0.73,0.786 -0.091,0.494 0,0" /></g><g
           transform="translate(224.8979,223.4882)"
           id="g232"><path
             id="path234"
             style="fill:none;stroke:#3a7fc3;stroke-width:1;stroke-linecap:round;stroke-linejoin:miter;stroke-miterlimit:10;stroke-dasharray:none;stroke-opacity:1"
             d="M 0,0 V -0.5" /></g><g
           transform="translate(224.8979,220.9882)"
           id="g236" /><g
           transform="translate(224.8979,85.9951)"
           id="g240"><path
             id="path242"
             style="fill:none;stroke:#3a7fc3;stroke-width:1;stroke-linecap:round;stroke-linejoin:miter;stroke-miterlimit:10;stroke-dasharray:none;stroke-opacity:1"
             d="M 0,0 V -0.5" /></g><g
           transform="translate(133.2758,71.4795)"
           id="g244" /><g
           transform="translate(137.5537,70.2851)"
           id="g248" /><g
           transform="translate(150.1655,67.0761)"
           id="g252" /><g
           transform="translate(101.854,54.9863)"
           id="g260" /><g
           transform="translate(106.9238,51.7754)"
           id="g264" /><g
           transform="translate(113.8417,55.8857)"
           id="g268" /><g
           transform="translate(122.7333,49.6816)"
           id="g272" /><g
           transform="translate(128.8295,54.1035)"
           id="g276" /><g
           transform="translate(138.3159,53.6836)"
           id="g280" /><g
           transform="translate(140.2172,55.8857)"
           id="g284" /><g
           transform="translate(154.0771,49.6816)"
           id="g290" /><g
           transform="translate(158.1572,56.3769)"
           id="g294" /><g
           transform="translate(165.7832,52.7949)"
           id="g298" /><g
           transform="translate(176.3315,53.6836)"
           id="g302" /><g
           transform="translate(178.2329,55.8857)"
           id="g306" /><g
           transform="translate(335.6333,72.6504)"
           id="g310" /><g
           transform="translate(344.3334,67.0761)"
           id="g314" /><g
           transform="translate(348.3647,70.2871)"
           id="g318" /><g
           transform="translate(354.4545,65.1211)"
           id="g322" /><g
           transform="translate(362.1342,68.4629)"
           id="g326" /><g
           transform="translate(365.3569,70.2871)"
           id="g330" /><g
           transform="translate(318.2573,54.9863)"
           id="g334" /><g
           transform="translate(323.3276,51.7773)"
           id="g338" /><g
           transform="translate(330.2456,55.8867)"
           id="g342" /><g
           transform="translate(339.1362,49.6826)"
           id="g346" /><g
           transform="translate(343.2172,56.3789)"
           id="g350" /><g
           transform="translate(350.8432,52.7968)"
           id="g354" /><g
           transform="translate(361.3911,53.6845)"
           id="g358" /><g
           transform="translate(363.2924,55.8867)"
           id="g362" /><g
           transform="translate(379.1928,53.1269)"
           id="g366" /></g></g></g></svg>